HIERARCHY
ROOT Hips
{
  OFFSET 5.72205e-005 65.662 3.42586
  CHANNELS 6 Xposition Yposition Zposition Zrotation Xrotation Yrotation
  JOINT Chest
  {
    OFFSET 0 8.7983 -4.7612
    CHANNELS 3 Zrotation Xrotation Yrotation
    JOINT Chest2
    {
      OFFSET 0 8.0291 0.4195
      CHANNELS 3 Zrotation Xrotation Yrotation
      JOINT Chest3
      {
        OFFSET 0 9.9351 -2.2114
        CHANNELS 3 Zrotation Xrotation Yrotation
        JOINT Neck
        {
          OFFSET 0 22.3885 -0.4656
          CHANNELS 3 Zrotation Xrotation Yrotation
          JOINT Head
          {
            OFFSET -0.0001 12.643 3.4389
            CHANNELS 3 Zrotation Xrotation Yrotation
            End Site
            {
              OFFSET 0.0001 17.6655 0.5274
            }
          }
        }
        JOINT LeftCollar
        {
          OFFSET 2.2603 21.606 7.4023
          CHANNELS 3 Zrotation Xrotation Yrotation
          JOINT LeftShoulder
          {
            OFFSET 13.5163 -1.1332 -5.0146
            CHANNELS 3 Zrotation Xrotation Yrotation
            JOINT LeftElbow
            {
              OFFSET -0.0995 -28.05 -0.2431
              CHANNELS 3 Zrotation Xrotation Yrotation
              JOINT LeftWrist
              {
                OFFSET 0.0679 -23.3996 -0.1402
                CHANNELS 3 Zrotation Xrotation Yrotation
                JOINT LeftFinger1
                {
                  OFFSET 0.7932 -9.069 2.5189
                  CHANNELS 3 Zrotation Xrotation Yrotation
                  JOINT LeftFinger11
                  {
                    OFFSET -0.8272 -3.3923 0.5977
                    CHANNELS 3 Zrotation Xrotation Yrotation
                    JOINT LeftFinger12
                    {
                      OFFSET -0.5649 -2.3158 0.4082
                      CHANNELS 3 Zrotation Xrotation Yrotation
                      End Site
                      {
                        OFFSET -0.4919 -1.6479 0.2673
                      }
                    }
                  }
                }
                JOINT LeftFinger2
                {
                  OFFSET 0.9159 -9.2044 0.2193
                  CHANNELS 3 Zrotation Xrotation Yrotation
                  JOINT LeftFinger21
                  {
                    OFFSET 0.0117 -4.1944 -0.0248
                    CHANNELS 3 Zrotation Xrotation Yrotation
                    JOINT LeftFinger22
                    {
                      OFFSET 0.0071 -2.3249 -0.0142
                      CHANNELS 3 Zrotation Xrotation Yrotation
                      End Site
                      {
                        OFFSET -0.1475 -2.0882 0.0028
                      }
                    }
                  }
                }
                JOINT LeftFinger3
                {
                  OFFSET 0.6113 -8.7231 -2.0637
                  CHANNELS 3 Zrotation Xrotation Yrotation
                  JOINT LeftFinger31
                  {
                    OFFSET -0.1927 -3.8059 -0.2383
                    CHANNELS 3 Zrotation Xrotation Yrotation
                    JOINT LeftFinger32
                    {
                      OFFSET -0.1091 -2.1688 -0.1362
                      CHANNELS 3 Zrotation Xrotation Yrotation
                      End Site
                      {
                        OFFSET -0.2358 -1.9176 -0.0906
                      }
                    }
                  }
                }
                JOINT LeftFinger4
                {
                  OFFSET -0.6151 -8.0947 -3.5641
                  CHANNELS 3 Zrotation Xrotation Yrotation
                  JOINT LeftFinger41
                  {
                    OFFSET -0.4882 -2.341 -0.6462
                    CHANNELS 3 Zrotation Xrotation Yrotation
                    JOINT LeftFinger42
                    {
                      OFFSET -0.3575 -1.7167 -0.4742
                      CHANNELS 3 Zrotation Xrotation Yrotation
                      End Site
                      {
                        OFFSET -0.4187 -1.5237 -0.3496
                      }
                    }
                  }
                }
                JOINT LeftFinger0
                {
                  OFFSET -1.42 -1.8761 1.4223
                  CHANNELS 3 Zrotation Xrotation Yrotation
                  JOINT LeftFinger01
                  {
                    OFFSET -1.1471 -3.4929 2.6334
                    CHANNELS 3 Zrotation Xrotation Yrotation
                    JOINT LeftFinger02
                    {
                      OFFSET -0.823 -2.3 1.6571
                      CHANNELS 3 Zrotation Xrotation Yrotation
                      End Site
                      {
                        OFFSET -0.5822 -1.6914 1.1582
                      }
                    }
                  }
                }
              }
            }
          }
        }
        JOINT RightCollar
        {
          OFFSET -2.2603 21.606 7.4023
          CHANNELS 3 Zrotation Xrotation Yrotation
          JOINT RightShoulder
          {
            OFFSET -13.5187 -1.1334 -5.0155
            CHANNELS 3 Zrotation Xrotation Yrotation
            JOINT RightElbow
            {
              OFFSET 0.0994 -28.0499 -0.2431
              CHANNELS 3 Zrotation Xrotation Yrotation
              JOINT RightWrist
              {
                OFFSET -0.0679 -23.3996 -0.1402
                CHANNELS 3 Zrotation Xrotation Yrotation
                JOINT RightFinger1
                {
                  OFFSET -0.7932 -9.0691 2.5189
                  CHANNELS 3 Zrotation Xrotation Yrotation
                  JOINT RightFinger11
                  {
                    OFFSET 0.8272 -3.3923 0.5977
                    CHANNELS 3 Zrotation Xrotation Yrotation
                    JOINT RightFinger12
                    {
                      OFFSET 0.565 -2.3158 0.4082
                      CHANNELS 3 Zrotation Xrotation Yrotation
                      End Site
                      {
                        OFFSET 0.4919 -1.6479 0.2673
                      }
                    }
                  }
                }
                JOINT RightFinger2
                {
                  OFFSET -0.916 -9.2044 0.2193
                  CHANNELS 3 Zrotation Xrotation Yrotation
                  JOINT RightFinger21
                  {
                    OFFSET -0.0117 -4.1944 -0.0248
                    CHANNELS 3 Zrotation Xrotation Yrotation
                    JOINT RightFinger22
                    {
                      OFFSET -0.0071 -2.3249 -0.0142
                      CHANNELS 3 Zrotation Xrotation Yrotation
                      End Site
                      {
                        OFFSET 0.1475 -2.0882 0.0028
                      }
                    }
                  }
                }
                JOINT RightFinger3
                {
                  OFFSET -0.6113 -8.7231 -2.0637
                  CHANNELS 3 Zrotation Xrotation Yrotation
                  JOINT RightFinger31
                  {
                    OFFSET 0.1927 -3.8059 -0.2383
                    CHANNELS 3 Zrotation Xrotation Yrotation
                    JOINT RightFinger32
                    {
                      OFFSET 0.1091 -2.1688 -0.1362
                      CHANNELS 3 Zrotation Xrotation Yrotation
                      End Site
                      {
                        OFFSET 0.2358 -1.9176 -0.0906
                      }
                    }
                  }
                }
                JOINT RightFinger4
                {
                  OFFSET 0.6151 -8.0947 -3.564
                  CHANNELS 3 Zrotation Xrotation Yrotation
                  JOINT RightFinger41
                  {
                    OFFSET 0.4882 -2.341 -0.6462
                    CHANNELS 3 Zrotation Xrotation Yrotation
                    JOINT RightFinger42
                    {
                      OFFSET 0.3574 -1.7166 -0.4742
                      CHANNELS 3 Zrotation Xrotation Yrotation
                      End Site
                      {
                        OFFSET 0.4187 -1.5237 -0.3496
                      }
                    }
                  }
                }
                JOINT RightFinger0
                {
                  OFFSET 1.4199 -1.8761 1.4221
                  CHANNELS 3 Zrotation Xrotation Yrotation
                  JOINT RightFinger01
                  {
                    OFFSET 1.1472 -3.4929 2.6336
                    CHANNELS 3 Zrotation Xrotation Yrotation
                    JOINT RightFinger02
                    {
                      OFFSET 0.8229 -2.3 1.6571
                      CHANNELS 3 Zrotation Xrotation Yrotation
                      End Site
                      {
                        OFFSET 0.5822 -1.6914 1.1582
                      }
                    }
                  }
                }
              }
            }
          }
        }
      }
    }
  }
  JOINT RightHip
  {
    OFFSET -9.412 3.9771 -0.7758
    CHANNELS 3 Zrotation Xrotation Yrotation
    JOINT RightKnee
    {
      OFFSET -0.7531 -40.938 0
      CHANNELS 3 Zrotation Xrotation Yrotation
      JOINT RightAnkle
      {
        OFFSET 0 -40.1986 0
        CHANNELS 3 Zrotation Xrotation Yrotation
        JOINT RightToe
        {
          OFFSET 0 -4.4182 9.239
          CHANNELS 3 Zrotation Xrotation Yrotation
          End Site
          {
            OFFSET 0 0 6.1981
          }
        }
      }
    }
  }
  JOINT LeftHip
  {
    OFFSET 9.4119 3.9773 -0.7758
    CHANNELS 3 Zrotation Xrotation Yrotation
    JOINT LeftKnee
    {
      OFFSET 0.7532 -40.9383 0
      CHANNELS 3 Zrotation Xrotation Yrotation
      JOINT LeftAnkle
      {
        OFFSET 0 -40.1986 0
        CHANNELS 3 Zrotation Xrotation Yrotation
        JOINT LeftToe
        {
          OFFSET 0 -4.4182 9.239
          CHANNELS 3 Zrotation Xrotation Yrotation
          End Site
          {
            OFFSET 0 0 6.1981
          }
        }
      }
    }
  }
}
MOTION
Frames:	6
Frame Time:	0.0333333
-0.495466 1.91343 9.55022 179.999 -89.9981 179.999 -0.0976852 8.55889 -0.151898 -0.175106 17.1181 -0.293855 -0.175106 17.1181 -0.293855 -5.32923 1.33349 -46.8889 0.240796 10.2934 8.78505 -7.6933 5.80814 0.483737 11.0413 33.8481 21.9383 -21.1905 -71.1947 -48.5299 -4.01604 -6.16199 -24.8315 -7.95139e-016 3.18055e-015 -5.06901e-015 -3.349e-006 -2.55329e-006 -6.60042e-007 1.98785e-016 3.18055e-015 -5.41688e-015 -7.95139e-016 3.18055e-015 -5.06901e-015 -0.0128288 0.0023251 8.47829e-005 -9.93923e-016 -3.18055e-015 -3.37934e-015 -7.95139e-016 3.18055e-015 -5.06901e-015 -0.0160511 0.00300301 0.000858108 -2.34543e-006 -1.47667e-006 3.9238e-006 -7.95139e-016 3.18055e-015 -5.06901e-015 -0.0126163 0.00312935 0.00283304 -3.37934e-015 3.18055e-015 -2.03754e-015 -7.95139e-016 3.18055e-015 -5.06901e-015 -3.349e-006 -2.55329e-006 -6.60042e-007 1.98785e-016 3.18055e-015 -5.41688e-015 5.59673 0.0897899 14.5173 -20.7692 -16.164 15.5594 42.1508 -42.802 -7.05087 -16.5204 4.77775 1.87945 9.54166e-015 9.44227e-016 1.11816e-015 6.36111e-015 6.4605e-016 1.31695e-015 6.36111e-015 -4.96962e-017 -1.2424e-016 9.54166e-015 9.44227e-016 1.11816e-015 0.0129425 0.00232993 -9.1473e-005 -3.18055e-015 -3.47873e-016 -0 9.54166e-015 9.44227e-016 1.11816e-015 0.0163493 0.00304551 -0.000879073 3.18055e-015 1.49089e-016 -1.98785e-016 9.54166e-015 9.44227e-016 1.11816e-015 0.0145995 0.00368953 -0.00326822 1.78453e-032 -5.96354e-016 1.71452e-015 9.54166e-015 9.44227e-016 1.11816e-015 6.36111e-015 6.4605e-016 1.31695e-015 6.36111e-015 -4.96962e-017 -1.2424e-016 -49.2464 -40.3281 -13.6672 174.265 69.2485 -177.14 -33.87 27.884 53.8672 2.99673e-007 1.61321e-006 1.08597e-007 19.9883 -35.0445 -6.54564 -168.983 59.8571 172.148 18.4605 -14.0264 3.13975 -4.40374e-006 3.38965e-006 5.07017e-006 
-0.496144 1.91335 9.55005 -179.999 -89.9981 -179.999 -0.0933093 8.66147 -0.152485 -0.165883 17.3232 -0.295675 -0.165883 17.3232 -0.295675 -4.91962 1.75379 -46.8962 0.218783 9.72234 8.79918 -7.684 5.45138 0.244934 11.0414 33.848 21.9383 -21.1906 -71.1946 -48.5299 -3.86734 -6.19082 -24.6527 6.70446e-007 1.56544e-006 -4.25342e-006 1.06869e-006 -1.13338e-005 -3.5136e-006 -9.93923e-016 4.77083e-015 -5.46658e-016 6.70446e-007 1.56544e-006 -4.25342e-006 -0.0128175 0.00231498 8.69547e-005 5.96354e-016 -1.59028e-015 3.13086e-015 6.70446e-007 1.56544e-006 -4.25342e-006 -0.0160426 0.00299365 0.00085558 -1.98785e-015 1.43125e-014 1.2424e-015 6.70446e-007 1.56544e-006 -4.25342e-006 -0.0125774 0.00312048 0.00282184 -7.95139e-016 1.59028e-015 -3.27995e-015 6.70446e-007 1.56544e-006 -4.25342e-006 1.06869e-006 -1.13338e-005 -3.5136e-006 -9.93923e-016 4.77083e-015 -5.46658e-016 5.40439 -0.402732 14.5324 -20.7692 -16.164 15.5594 42.8559 -43.6263 -6.1696 -17.4879 4.66827 1.82854 -3.18055e-015 5.46658e-016 3.97569e-016 -1.42245e-033 -2.98177e-016 -2.73329e-016 -3.18055e-015 2.48481e-016 5.71506e-016 -3.18055e-015 5.46658e-016 3.97569e-016 0.0129706 0.00231859 -8.94765e-005 -3.18055e-015 1.98785e-016 1.49089e-016 -3.18055e-015 5.46658e-016 3.97569e-016 0.0163216 0.00303864 -0.000866106 6.36111e-015 0 1.16786e-015 -3.18055e-015 5.46658e-016 3.97569e-016 0.0146053 0.00367997 -0.00326402 -3.18055e-015 -8.44835e-016 -2.5842e-015 -3.18055e-015 5.46658e-016 3.97569e-016 -1.42245e-033 -2.98177e-016 -2.73329e-016 -3.18055e-015 2.48481e-016 5.71506e-016 -48.9125 -40.3921 -13.2637 174.266 69.2491 -177.138 -33.5232 27.9933 53.7023 8.32411e-016 3.18055e-015 -7.45443e-017 19.5173 -35.026 -7.00566 -168.984 59.854 172.16 18.1326 -13.9256 3.35777 5.56597e-015 -2.69363e-007 3.18055e-015 
-0.496821 1.91327 9.54989 180 -89.9981 180 -0.0889266 8.76415 -0.15304 -0.156641 17.5285 -0.297449 -0.156641 17.5286 -0.29745 -4.50972 2.17413 -46.9065 0.196919 9.15107 8.8131 -7.67621 5.09449 0.00628121 11.0414 33.848 21.9383 -21.1905 -71.1946 -48.5298 -3.7185 -6.21918 -24.4738 -3.68448e-006 -1.16346e-006 1.46446e-006 9.93923e-016 1.59028e-015 -4.87022e-015 6.71757e-007 9.59321e-007 -4.25308e-006 -3.68448e-006 -1.16346e-006 1.46446e-006 -0.0127953 0.0023197 8.36277e-005 -2.52496e-006 -1.59844e-006 -3.71341e-006 -3.68448e-006 -1.16346e-006 1.46446e-006 -0.0160591 0.00300837 0.000859406 -1.19271e-015 4.77083e-015 -9.24349e-015 -3.68448e-006 -1.16346e-006 1.46446e-006 -0.012606 0.0031135 0.00282558 -1.33772e-006 -5.82784e-007 -2.45778e-006 -3.68448e-006 -1.16346e-006 1.46446e-006 9.93923e-016 1.59028e-015 -4.87022e-015 6.71757e-007 9.59321e-007 -4.25308e-006 5.2121 -0.895461 14.546 -20.7693 -16.164 15.5594 43.5893 -44.4432 -5.26095 -18.4562 4.55945 1.77582 1.65521e-032 5.96354e-016 -1.59028e-015 4.22995e-008 -1.0934e-006 -3.40457e-006 3.18055e-015 3.97569e-016 -9.93923e-016 1.65521e-032 5.96354e-016 -1.59028e-015 0.0129475 0.00232553 -8.06861e-005 3.18055e-015 -1.98785e-016 -2.98177e-016 1.65521e-032 5.96354e-016 -1.59028e-015 0.0163183 0.00303493 -0.000875707 6.89673e-033 -3.97569e-016 9.93923e-016 1.65521e-032 5.96354e-016 -1.59028e-015 0.0145873 0.00368195 -0.00325466 6.36111e-015 -3.97569e-016 5.96354e-016 1.65521e-032 5.96354e-016 -1.59028e-015 4.22995e-008 -1.0934e-006 -3.40457e-006 3.18055e-015 3.97569e-016 -9.93923e-016 -48.5753 -40.4564 -12.8578 174.265 69.2481 -177.137 -33.1756 28.1016 53.5364 -2.56246e-015 3.18055e-015 9.93923e-017 19.0467 -35.004 -7.46537 -168.986 59.8513 172.171 17.8043 -13.8259 3.57636 3.05567e-006 -1.74316e-006 -1.15539e-006 
-0.497498 1.91319 9.54972 180 -89.9981 180 -0.0845377 8.86691 -0.153561 -0.147382 17.7341 -0.299176 -0.147382 17.7341 -0.299177 -4.09949 2.59459 -46.9198 0.175256 8.57958 8.82674 -7.66991 4.73754 -0.232231 11.0414 33.848 21.9383 -21.1906 -71.1946 -48.53 -3.56955 -6.24711 -24.2948 1.78906e-015 -3.18055e-015 -6.55989e-015 2.01078e-006 1.91383e-006 -1.79489e-006 5.96354e-016 4.77083e-015 9.83984e-015 1.78906e-015 -3.18055e-015 -6.55989e-015 -0.0127996 0.00231799 8.39687e-005 5.96354e-016 3.18055e-015 7.25564e-015 1.78906e-015 -3.18055e-015 -6.55989e-015 -0.0160521 0.00300062 0.00085515 -1.78906e-015 -1.59028e-015 7.70291e-015 1.78906e-015 -3.18055e-015 -6.55989e-015 -0.0125783 0.00313252 0.0028259 2.78299e-015 -1.59028e-015 9.79014e-015 1.78906e-015 -3.18055e-015 -6.55989e-015 2.01078e-006 1.91383e-006 -1.79489e-006 5.96354e-016 4.77083e-015 9.83984e-015 5.01986 -1.38833 14.5578 -20.7695 -16.1641 15.5593 44.3523 -45.2522 -4.32381 -19.4252 4.45135 1.7212 -3.18055e-015 -3.97569e-016 1.49089e-015 -3.18055e-015 -7.95139e-016 5.96354e-016 -3.10706e-006 2.40767e-007 2.67544e-006 -3.18055e-015 -3.97569e-016 1.49089e-015 0.012947 0.00230509 -7.58163e-005 -4.34883e-006 7.24639e-006 1.27543e-006 -3.18055e-015 -3.97569e-016 1.49089e-015 0.0163359 0.00302945 -0.000873709 -5.74778e-006 1.08514e-005 1.03161e-006 -3.18055e-015 -3.97569e-016 1.49089e-015 0.0145641 0.00366625 -0.00324694 -1.54914e-006 5.02029e-007 2.61416e-006 -3.18055e-015 -3.97569e-016 1.49089e-015 -3.18055e-015 -7.95139e-016 5.96354e-016 -3.10706e-006 2.40767e-007 2.67544e-006 -48.239 -40.5171 -12.4522 174.266 69.2484 -177.136 -32.8273 28.2091 53.3697 1.49916e-006 -1.56696e-006 -1.00562e-007 18.5761 -34.9792 -7.92495 -168.987 59.8484 172.182 17.4758 -13.7274 3.79549 -1.37271e-005 9.59368e-006 -6.17186e-006 
-0.498175 1.91309 9.54955 -180 -89.9981 -180 -0.0801438 8.96975 -0.154049 -0.138107 17.9398 -0.300857 -0.138108 17.9398 -0.300857 -3.68891 3.01499 -46.9362 0.153752 8.00795 8.84015 -7.6651 4.38051 -0.470618 11.0414 33.848 21.9383 -21.1906 -71.1947 -48.53 -3.42055 -6.2746 -24.1158 2.01142e-006 1.10682e-006 -1.79436e-006 3.18055e-015 0 -1.39149e-014 9.93923e-016 3.18055e-015 -1.0635e-014 2.01142e-006 1.10682e-006 -1.79436e-006 -0.0128204 0.00232976 9.63637e-005 1.19271e-015 -1.59028e-015 -1.09332e-015 2.01142e-006 1.10682e-006 -1.79436e-006 -0.0160613 0.00299631 0.00086086 7.95139e-016 3.18055e-015 2.88238e-015 2.01142e-006 1.10682e-006 -1.79436e-006 -0.0126157 0.00312054 0.00283199 4.58133e-006 -6.01592e-006 -1.261e-005 2.01142e-006 1.10682e-006 -1.79436e-006 3.18055e-015 0 -1.39149e-014 9.93923e-016 3.18055e-015 -1.0635e-014 4.82763 -1.88136 14.5681 -20.7693 -16.164 15.5594 45.146 -46.0531 -3.35641 -20.3951 4.34439 1.66469 -4.26561e-006 9.22148e-006 -8.34477e-006 3.18055e-015 0 -9.93923e-016 7.17725e-006 -4.45851e-007 -2.88764e-006 -4.26561e-006 9.22148e-006 -8.34477e-006 0.0129455 0.00232162 -8.40245e-005 6.17011e-006 2.63543e-007 -4.59877e-006 -4.26561e-006 9.22148e-006 -8.34477e-006 0.0163475 0.00302791 -0.000873505 3.70665e-006 -8.85404e-007 -3.82271e-007 -4.26561e-006 9.22148e-006 -8.34477e-006 0.0145856 0.00367026 -0.00326417 4.02041e-006 9.37621e-006 -4.41681e-006 -4.26561e-006 9.22148e-006 -8.34477e-006 3.18055e-015 0 -9.93923e-016 7.17725e-006 -4.45851e-007 -2.88764e-006 -47.9003 -40.5776 -12.0447 174.266 69.2475 -177.135 -32.4782 28.3158 53.2019 -1.14922e-016 -3.18055e-015 1.80149e-016 18.1063 -34.9505 -8.38391 -168.988 59.8463 172.193 17.1468 -13.6299 4.01511 -1.52864e-006 2.23515e-006 5.76709e-007 
-0.498851 1.91299 9.54938 179.997 -89.9981 179.997 -0.0757452 9.07269 -0.154503 -0.128819 18.1456 -0.30249 -0.128819 18.1456 -0.302491 -3.27797 3.43536 -46.9556 0.132392 7.43625 8.85336 -7.66179 4.02341 -0.708894 11.0414 33.848 21.9383 -21.1905 -71.1946 -48.5299 -3.27144 -6.30163 -23.9366 -1.67403e-006 -2.52946e-006 -3.32447e-007 1.67403e-006 2.52946e-006 3.32447e-007 2.85954e-006 5.79222e-007 1.58889e-006 -1.67403e-006 -2.52946e-006 -3.32447e-007 -0.0128081 0.00232382 9.26208e-005 1.4071e-006 1.25828e-006 -5.6386e-006 -1.67403e-006 -2.52946e-006 -3.32447e-007 -0.0160422 0.00299641 0.00085544 3.00913e-006 1.81293e-006 2.79143e-006 -1.67403e-006 -2.52946e-006 -3.32447e-007 -0.0126125 0.00314258 0.00284237 5.09403e-006 -7.26253e-006 -7.09952e-006 -1.67403e-006 -2.52946e-006 -3.32447e-007 1.67403e-006 2.52946e-006 3.32447e-007 2.85954e-006 5.79222e-007 1.58889e-006 4.6354 -2.37449 14.5766 -20.7693 -16.164 15.5593 45.971 -46.8444 -2.35872 -21.3651 4.23789 1.60645 3.18055e-015 1.59028e-015 9.93923e-016 -6.36111e-015 7.95139e-016 2.5842e-015 -3.18055e-015 0 1.78906e-015 3.18055e-015 1.59028e-015 9.93923e-016 0.01296 0.00232306 -9.40298e-005 -6.36111e-015 -3.97569e-016 -1.98785e-016 3.18055e-015 1.59028e-015 9.93923e-016 0.0163225 0.00303236 -0.000865319 0 0 -2.18663e-015 3.18055e-015 1.59028e-015 9.93923e-016 0.0145789 0.00368255 -0.00326932 -6.36111e-015 -1.59028e-015 1.98785e-015 3.18055e-015 1.59028e-015 9.93923e-016 -6.36111e-015 7.95139e-016 2.5842e-015 -3.18055e-015 0 1.78906e-015 -47.561 -40.6357 -11.6366 174.266 69.247 -177.134 -32.1284 28.4215 53.0333 4.71701e-007 1.2067e-008 -6.10085e-008 17.6363 -34.9197 -8.84282 -168.989 59.8432 172.204 16.8176 -13.5335 4.23527 1.68062e-006 -2.93604e-007 1.87298e-006 
